<svg xmlns="http://www.w3.org/2000/svg" width="18" height="17" viewBox="0 0 18 17" fill="none">
  <path d="M9.14233 17C13.8368 17 17.6423 13.1944 17.6423 8.5C17.6423 3.80558 13.8368 0 9.14233 0C4.44791 0 0.642334 3.80558 0.642334 8.5C0.642334 13.1944 4.44791 17 9.14233 17Z" fill="#B9BBBE"/>
  <path d="M9.1422 9.91668C7.43134 9.91668 6.29612 9.7174 4.8922 9.44446C4.57156 9.3826 3.94775 9.44446 3.94775 10.3889C3.94775 12.2778 6.11761 14.6389 9.1422 14.6389C12.1663 14.6389 14.3366 12.2778 14.3366 10.3889C14.3366 9.44446 13.7128 9.38212 13.3922 9.44446C11.9883 9.7174 10.8531 9.91668 9.1422 9.91668Z" fill="#40444B"/>
  <path d="M4.89233 10.3889C4.89233 10.3889 6.309 10.8611 9.14233 10.8611C11.9757 10.8611 13.3923 10.3889 13.3923 10.3889C13.3923 10.3889 12.4479 12.2778 9.14233 12.2778C5.83678 12.2778 4.89233 10.3889 4.89233 10.3889Z" fill="white"/>
  <path d="M6.30897 8.02778C6.96098 8.02778 7.48953 7.28781 7.48953 6.37501C7.48953 5.4622 6.96098 4.72223 6.30897 4.72223C5.65697 4.72223 5.12842 5.4622 5.12842 6.37501C5.12842 7.28781 5.65697 8.02778 6.30897 8.02778Z" fill="#40444B"/>
  <path d="M11.9757 8.02778C12.6277 8.02778 13.1563 7.28781 13.1563 6.37501C13.1563 5.4622 12.6277 4.72223 11.9757 4.72223C11.3237 4.72223 10.7952 5.4622 10.7952 6.37501C10.7952 7.28781 11.3237 8.02778 11.9757 8.02778Z" fill="#40444B"/>
</svg>