<svg xmlns="http://www.w3.org/2000/svg" width="18" height="15" viewBox="0 0 18 15" fill="none">
  <path d="M1.4702 0C0.658231 0 0 0.671572 0 1.5V13.5C0 14.3285 0.65823 15 1.4702 15H16.1722C16.9842 15 17.6424 14.3285 17.6424 13.5V1.5C17.6424 0.671572 16.9842 0 16.1722 0H1.4702ZM7.17784 7.086V10.11C6.54272 10.533 5.79291 10.767 4.9549 10.767C3.02306 10.767 1.9557 9.471 1.9557 7.554C1.9557 5.628 3.11127 4.323 4.99019 4.323C5.73999 4.323 6.36629 4.503 6.85146 4.782L6.64857 6.123C6.18987 5.826 5.65177 5.592 5.02547 5.592C3.97575 5.592 3.46412 6.384 3.46412 7.545C3.46412 8.715 3.99339 9.534 5.04311 9.534C5.37832 9.534 5.61649 9.462 5.86348 9.336V8.229H4.72555V7.086H7.17784ZM8.489 4.44H9.99743V10.65H8.489V4.44ZM15.0492 4.44V5.727H12.9057V6.996H14.5994V8.283H12.9057V10.65H11.4061V4.44H15.0492Z" fill="#B9BBBE"/>
</svg>