<svg width="338" height="75" viewBox="0 0 338 75" fill="none" xmlns="http://www.w3.org/2000/svg">
<path d="M97.9798 72.8801C94.3781 71.9776 90.9329 70.5382 87.7598 68.6101V56.9901C90.53 59.005 93.6492 60.49 96.9598 61.3701C100.581 62.4751 104.344 63.051 108.13 63.0801C109.437 63.1499 110.742 62.9243 111.95 62.4201C112.81 61.9801 113.24 61.4201 113.24 60.8401C113.249 60.516 113.192 60.1935 113.071 59.8925C112.951 59.5915 112.77 59.3184 112.54 59.0901C111.741 58.4758 110.804 58.0671 109.81 57.9001L101.41 56.0101C96.5964 54.8901 93.1798 53.3401 91.1598 51.3601C90.1457 50.3373 89.3554 49.1149 88.8389 47.7704C88.3225 46.4259 88.0912 44.9887 88.1598 43.5501C88.126 40.9428 89.0758 38.4185 90.8198 36.4801C92.8875 34.2928 95.495 32.689 98.3798 31.8301C102.092 30.6633 105.969 30.106 109.86 30.1801C113.492 30.146 117.114 30.5693 120.64 31.4401C123.488 32.1149 126.223 33.1996 128.76 34.6601V45.6601C126.381 44.28 123.824 43.2335 121.16 42.5501C118.274 41.7762 115.298 41.3862 112.31 41.3901C107.923 41.3901 105.73 42.1368 105.73 43.6301C105.722 43.9626 105.813 44.2899 105.991 44.571C106.169 44.8521 106.426 45.0744 106.73 45.2101C107.928 45.7197 109.184 46.0823 110.47 46.2901L117.47 47.5501C122.016 48.3501 125.406 49.7501 127.64 51.7501C129.873 53.7501 130.993 56.6768 131 60.5301C131.035 62.5563 130.54 64.5566 129.563 66.332C128.586 68.1074 127.161 69.5961 125.43 70.6501C121.743 73.1234 116.48 74.3568 109.64 74.3501C105.707 74.3562 101.788 73.8622 97.9798 72.8801Z" fill="white"/>
<path d="M147.54 71.41C143.797 69.6904 140.643 66.9083 138.47 63.41C136.442 59.9793 135.404 56.0544 135.47 52.07C135.409 48.0879 136.503 44.1736 138.62 40.8C140.875 37.3565 144.087 34.6458 147.86 33C152.447 31.001 157.417 30.0316 162.42 30.16C169.42 30.16 175.23 31.63 179.85 34.57V47.4C178.092 46.2184 176.172 45.2988 174.15 44.67C171.886 43.9553 169.524 43.6009 167.15 43.62C162.81 43.62 159.413 44.4133 156.96 46C155.857 46.6155 154.937 47.5121 154.293 48.5987C153.649 49.6852 153.305 50.9229 153.295 52.1859C153.284 53.4488 153.609 54.6919 154.235 55.7887C154.861 56.8854 155.767 57.7968 156.86 58.43C159.24 60.0366 162.693 60.84 167.22 60.84C169.556 60.8455 171.881 60.5086 174.12 59.84C176.162 59.2544 178.123 58.418 179.96 57.35V69.75C174.549 72.9047 168.372 74.5035 162.11 74.37C157.091 74.5069 152.107 73.4944 147.54 71.41Z" fill="white"/>
<path d="M197.28 71.4101C193.495 69.6821 190.285 66.9058 188.03 63.4101C185.904 59.9875 184.801 56.0288 184.85 52.0001C184.782 48.0192 185.888 44.1064 188.03 40.7501C190.297 37.3433 193.493 34.6573 197.24 33.0101C206.442 29.2766 216.737 29.2766 225.94 33.0101C229.671 34.6447 232.854 37.3175 235.11 40.7101C237.237 44.0788 238.332 47.9965 238.26 51.9801C238.309 56.0047 237.217 59.961 235.11 63.3901C232.879 66.8882 229.684 69.6665 225.91 71.3901C221.386 73.3299 216.516 74.3301 211.595 74.3301C206.673 74.3301 201.803 73.3299 197.28 71.3901V71.4101ZM218.55 58.9901C219.415 58.0973 220.088 57.0371 220.528 55.8746C220.968 54.7121 221.166 53.4719 221.11 52.2301C221.17 50.9999 220.974 49.7707 220.533 48.6206C220.092 47.4705 219.417 46.4248 218.55 45.5501C217.609 44.6875 216.505 44.0226 215.302 43.5949C214.1 43.1671 212.824 42.9853 211.55 43.0601C210.276 42.9931 209.002 43.1787 207.801 43.606C206.6 44.0333 205.495 44.6941 204.55 45.5501C203.686 46.4267 203.013 47.473 202.574 48.6228C202.135 49.7725 201.94 51.0009 202 52.2301C201.944 53.471 202.141 54.7103 202.579 55.8725C203.018 57.0346 203.688 58.0954 204.55 58.9901C205.485 59.8635 206.587 60.5394 207.79 60.9775C208.993 61.4156 210.271 61.6069 211.55 61.5401C212.829 61.6145 214.109 61.4267 215.313 60.9882C216.517 60.5497 217.618 59.8697 218.55 58.9901Z" fill="white"/>
<path d="M280.33 32.7499V47.8899C278.24 46.6429 275.831 46.0345 273.4 46.1399C269.67 46.1399 266.79 47.2799 264.79 49.5399C262.79 51.7999 261.79 55.3099 261.79 60.0699V72.9499H244.64V31.9999H261.44V44.9999C262.373 40.2399 263.88 36.7299 265.96 34.4699C266.968 33.3586 268.206 32.4791 269.587 31.8922C270.968 31.3052 272.46 31.0247 273.96 31.0699C276.2 31.0088 278.411 31.5919 280.33 32.7499Z" fill="white"/>
<path d="M337.31 22.55V72.95H320.16V63.75C318.867 67.0253 316.543 69.7911 313.54 71.63C310.225 73.5188 306.454 74.4598 302.64 74.35C299.051 74.4336 295.518 73.4486 292.49 71.52C289.558 69.6151 287.222 66.9221 285.75 63.75C284.145 60.2486 283.345 56.4315 283.41 52.5801C283.297 48.5867 284.148 44.625 285.89 41.03C287.492 37.7373 289.991 34.9641 293.1 33.0301C296.296 31.0938 299.974 30.099 303.71 30.16C311.87 30.16 317.354 33.7067 320.16 40.8V22.55H337.31ZM317.64 58.75C318.514 57.8898 319.2 56.8568 319.653 55.717C320.105 54.5772 320.316 53.3556 320.27 52.1301C320.307 50.9412 320.092 49.7579 319.639 48.6582C319.186 47.5586 318.504 46.5674 317.64 45.75C315.678 44.1526 313.225 43.2804 310.695 43.2804C308.165 43.2804 305.712 44.1526 303.75 45.75C302.889 46.5862 302.212 47.5944 301.766 48.7092C301.32 49.8239 301.114 51.0202 301.16 52.2201C301.116 53.4312 301.327 54.638 301.778 55.7628C302.229 56.8875 302.912 57.9052 303.78 58.75C304.699 59.6041 305.779 60.266 306.957 60.6971C308.135 61.1281 309.387 61.3195 310.64 61.26C311.916 61.3305 313.192 61.1447 314.394 60.7136C315.597 60.2825 316.7 59.6148 317.64 58.75Z" fill="white"/>
<path d="M71.5598 36.36C76.2818 36.36 80.1098 32.9215 80.1098 28.68C80.1098 24.4385 76.2818 21 71.5598 21C66.8377 21 63.0098 24.4385 63.0098 28.68C63.0098 32.9215 66.8377 36.36 71.5598 36.36Z" fill="white"/>
<path d="M63 41.6499C65.7085 42.7882 68.617 43.3746 71.555 43.3746C74.493 43.3746 77.4015 42.7882 80.11 41.6499V73.1699H63V41.6499Z" fill="white"/>
<path d="M0.162109 73.9192C1.46741 71.985 2.14266 69.9061 2.14831 67.8043C2.15396 65.7025 1.4899 63.62 0.195021 61.6788L36.1935 61.7756L36.1606 74.016L0.162109 73.9192Z" fill="white"/>
<path d="M11.7111 45.039C16.4332 45.039 20.2611 41.6005 20.2611 37.359C20.2611 33.1174 16.4332 29.679 11.7111 29.679C6.9891 29.679 3.16113 33.1174 3.16113 37.359C3.16113 41.6005 6.9891 45.039 11.7111 45.039Z" fill="white"/>
<path d="M0.161316 22.1956V73.9956H17.3113V63.3956C18.6047 66.6708 20.9282 69.4366 23.9313 71.2756C27.2466 73.1643 31.0173 74.1053 34.8313 73.9956C38.4204 74.0791 41.9533 73.0941 44.9813 71.1656C47.9137 69.2606 50.2497 66.5676 51.7213 63.3956C53.327 59.8941 54.1266 56.077 54.0613 52.2256C54.1743 48.2323 53.3236 44.2705 51.5813 40.6756C49.9798 37.3828 47.4805 34.6096 44.3713 32.6756C41.1753 30.7393 37.4976 29.7445 33.7613 29.8056C25.6013 29.8056 20.118 33.3522 17.3113 40.4456L14.6611 31.322V22.1956H0.161316ZM19.8313 58.3956C18.9572 57.5353 18.272 56.5023 17.8192 55.3625C17.3663 54.2228 17.1559 53.0011 17.2013 51.7756C17.1642 50.5867 17.3794 49.4034 17.8327 48.3037C18.286 47.2041 18.9672 46.2129 19.8313 45.3956C21.7934 43.7981 24.2462 42.9259 26.7763 42.9259C29.3065 42.9259 31.7593 43.7981 33.7213 45.3956C34.5832 46.2317 35.2592 47.2399 35.7055 48.3547C36.1517 49.4695 36.3582 50.6657 36.3113 51.8656C36.3553 53.0767 36.1448 54.2835 35.6935 55.4083C35.2422 56.533 34.5602 57.5507 33.6913 58.3956C32.7726 59.2496 31.6925 59.9116 30.5145 60.3426C29.3365 60.7736 28.0843 60.965 26.8313 60.9056C25.556 60.976 24.2796 60.7902 23.0773 60.3591C21.875 59.928 20.7713 59.2603 19.8313 58.3956Z" fill="white"/>
<path d="M0.129883 12.0649C1.32704 10.2168 1.94646 8.23046 1.95186 6.22227C1.95726 4.21407 1.34853 2.22441 0.161329 0.369868L33.1718 0.458627L33.1404 12.1537L0.129883 12.0649Z" fill="white"/>
<path d="M0.161316 22.1956V73.9956H17.3113V63.3956C18.6047 66.6708 20.9282 69.4366 23.9313 71.2756C27.2466 73.1643 31.0173 74.1053 34.8313 73.9956C38.4204 74.0791 41.9533 73.0941 44.9813 71.1656C47.9137 69.2606 50.2497 66.5676 51.7213 63.3956C53.327 59.8941 54.1266 56.077 54.0613 52.2256C54.1743 48.2323 53.3236 44.2705 51.5813 40.6756C49.9798 37.3828 47.4805 34.6096 44.3713 32.6756C41.1753 30.7393 37.4976 29.7445 33.7613 29.8056C25.6013 29.8056 20.118 33.3522 17.3113 40.4456L14.6611 31.322V22.1956H0.161316ZM19.8313 58.3956C18.9572 57.5353 18.272 56.5023 17.8192 55.3625C17.3663 54.2228 17.1559 53.0011 17.2013 51.7756C17.1642 50.5867 17.3794 49.4034 17.8327 48.3037C18.286 47.2041 18.9672 46.2129 19.8313 45.3956C21.7934 43.7981 24.2462 42.9259 26.7763 42.9259C29.3065 42.9259 31.7593 43.7981 33.7213 45.3956C34.5832 46.2317 35.2592 47.2399 35.7055 48.3547C36.1517 49.4695 36.3582 50.6657 36.3113 51.8656C36.3553 53.0767 36.1448 54.2835 35.6935 55.4083C35.2422 56.533 34.5602 57.5507 33.6913 58.3956C32.7726 59.2496 31.6925 59.9116 30.5145 60.3426C29.3365 60.7736 28.0843 60.965 26.8313 60.9056C25.556 60.976 24.2796 60.7902 23.0773 60.3591C21.875 59.928 20.7713 59.2603 19.8313 58.3956Z" fill="white"/>
<path d="M0.385084 51.1829L0.165909 0.383497L16.1669 2.07777L14.6652 7.36391C15.8593 4.17151 19.5968 5.12206 22.4118 3.3134C25.5204 1.45405 29.065 0.512641 32.6581 0.592081C36.0379 0.485256 39.3727 1.41738 42.2389 3.27005C45.0149 5.1005 47.2349 7.70108 48.6444 10.7734C50.1825 14.165 50.9637 17.869 50.9306 21.6126C51.0664 25.4928 50.2944 29.3493 48.6798 32.8555C47.1956 36.0671 44.862 38.7802 41.9479 40.682C38.9519 42.5867 35.4953 43.5798 31.9758 43.5471C24.2901 43.6053 19.0995 40.1975 16.4037 33.3237L16.5381 51.0605L0.385084 51.1829ZM18.645 15.8605C17.8281 16.7028 17.1902 17.7116 16.7721 18.8226C16.3541 19.9335 16.1649 21.1223 16.2167 22.3131C16.1904 23.4688 16.4018 24.6172 16.8369 25.6827C17.272 26.7483 17.9208 27.7067 18.7408 28.4949C20.6005 30.0334 22.9172 30.8636 25.3002 30.8455C27.6833 30.8275 29.9871 29.9623 31.8233 28.3957C32.6289 27.577 33.2582 26.5923 33.6703 25.5057C34.0824 24.4191 34.268 23.255 34.2151 22.0892C34.2475 20.9118 34.0404 19.7404 33.6071 18.6505C33.1738 17.5606 32.5238 16.5765 31.6993 15.7615C30.8277 14.9381 29.8055 14.3024 28.6928 13.8919C27.5801 13.4815 26.3993 13.3044 25.2196 13.3711C24.0179 13.3117 22.817 13.5014 21.6878 13.929C20.5586 14.3565 19.524 15.0133 18.645 15.8605Z" fill="white"/>
</svg>
