<svg width="128" height="97" viewBox="0 0 128 97" fill="none" xmlns="http://www.w3.org/2000/svg">
<path d="M107.7 88.2901C99.3468 92.1144 90.5284 94.8275 81.47 96.3601C80.2305 94.1442 79.1089 91.8644 78.11 89.5301C68.4612 90.9841 58.6489 90.9841 49 89.5301C48.0006 91.8641 46.8791 94.144 45.64 96.3601C36.5759 94.8146 27.7517 92.0951 19.39 88.2701C2.79002 63.7101 -1.70996 39.7601 0.540039 16.1501C10.2614 8.96753 21.1424 3.50506 32.71 0.00012207C35.3147 3.50333 37.6195 7.21981 39.6 11.1101C35.8384 12.5151 32.2077 14.2484 28.75 16.2901C29.66 16.9501 30.55 17.6301 31.41 18.2901C41.471 13.5587 52.452 11.1055 63.57 11.1055C74.688 11.1055 85.6691 13.5587 95.73 18.2901C96.6 17.5801 97.49 16.9001 98.39 16.2901C94.9257 14.2451 91.2884 12.5084 87.52 11.1001C89.4981 7.21161 91.8031 3.49825 94.41 0.00012207C105.988 3.49099 116.877 8.95089 126.6 16.1401C129.24 43.5201 122.09 67.2501 107.7 88.2901ZM42.45 30.6701C36.18 30.6701 31 36.3601 31 43.3601C31 50.3601 36 56.1001 42.43 56.1001C48.86 56.1001 54 50.3601 53.89 43.3601C53.78 36.3601 48.84 30.6701 42.45 30.6701ZM84.69 30.6701C78.41 30.6701 73.25 36.3601 73.25 43.3601C73.25 50.3601 78.25 56.1001 84.69 56.1001C91.1301 56.1001 96.23 50.3601 96.12 43.3601C96.01 36.3601 91.0801 30.6701 84.69 30.6701Z" fill="#F04B00"/>
<path fill-rule="evenodd" clip-rule="evenodd" d="M126.681 17.0099L93.9237 35.9221C91.8693 32.7414 88.5453 30.67 84.6899 30.67C78.4099 30.67 73.2499 36.36 73.2499 43.36C73.2499 44.809 73.4641 46.204 73.8611 47.5052L15.0752 81.4453C2.01253 59.266 -1.50121 37.5681 0.539906 16.15C10.2613 8.96741 21.1423 3.50494 32.7099 0C35.3146 3.50321 37.6194 7.21969 39.5999 11.11C35.8382 12.5149 32.2076 14.2483 28.7499 16.29C29.6599 16.95 30.5499 17.63 31.4099 18.29C41.4709 13.5586 52.4519 11.1054 63.5699 11.1054C74.6879 11.1054 85.6689 13.5586 95.7299 18.29C96.5999 17.58 97.4899 16.9 98.3899 16.29C94.9256 14.245 91.2882 12.5083 87.5199 11.1C89.498 7.21148 91.8029 3.49813 94.4099 0C105.987 3.49087 116.877 8.95077 126.6 16.14C126.628 16.4304 126.655 16.7203 126.681 17.0099ZM30.9999 43.36C30.9999 36.36 36.1799 30.67 42.4499 30.67C48.8399 30.67 53.7799 36.36 53.8899 43.36C53.9999 50.36 48.8599 56.1 42.4299 56.1C35.9999 56.1 30.9999 50.36 30.9999 43.36Z" fill="#F69366"/>
</svg>
