<svg xmlns="http://www.w3.org/2000/svg" width="80" height="80" viewBox="0 0 80 80" fill="none">
<path d="M6.6665 24.6667C6.6665 19.8929 8.56293 15.3145 11.9386 11.9388C15.3142 8.56317 19.8926 6.66675 24.6665 6.66675C25.8665 6.66675 26.9998 7.40008 27.4332 8.50008L33.8665 23.9667C34.1755 24.7167 34.2003 25.5537 33.9365 26.3207C33.6726 27.0877 33.1381 27.7322 32.4332 28.1334L23.3332 33.3334C24.3078 39.1684 27.0802 44.5535 31.2633 48.7366C35.4464 52.9198 40.8315 55.6922 46.6665 56.6667L50.3998 49.2001C50.7521 48.4924 51.3443 47.9329 52.0709 47.6215C52.7975 47.3101 53.6111 47.2671 54.3665 47.5001L71.2332 52.7001C72.4998 53.0667 73.3332 54.2334 73.3332 55.5334C73.3332 65.3334 65.3332 73.3334 55.5332 73.3334H54.2998C27.9665 73.3334 6.6665 52.0001 6.6665 25.7001V24.6667ZM43.3332 10.0001C43.3332 9.11603 43.6844 8.26818 44.3095 7.64306C44.9346 7.01794 45.7824 6.66675 46.6665 6.66675C53.7389 6.66675 60.5217 9.47626 65.5227 14.4772C70.5237 19.4782 73.3332 26.261 73.3332 33.3334C73.3332 34.2175 72.982 35.0653 72.3569 35.6904C71.7317 36.3156 70.8839 36.6667 69.9998 36.6667C69.1158 36.6667 68.2679 36.3156 67.6428 35.6904C67.0177 35.0653 66.6665 34.2175 66.6665 33.3334C66.6665 28.0291 64.5594 22.942 60.8086 19.1913C57.0579 15.4406 51.9708 13.3334 46.6665 13.3334C45.7824 13.3334 44.9346 12.9822 44.3095 12.3571C43.6844 11.732 43.3332 10.8841 43.3332 10.0001Z" fill="#ABABAB"/>
<path d="M43.3335 23.3336C43.3335 22.4495 43.6847 21.6017 44.3098 20.9766C44.9349 20.3514 45.7828 20.0002 46.6668 20.0002C50.203 20.0002 53.5944 21.405 56.0949 23.9055C58.5954 26.406 60.0002 29.7974 60.0002 33.3336C60.0002 34.2176 59.649 35.0655 59.0239 35.6906C58.3987 36.3157 57.5509 36.6669 56.6668 36.6669C55.7828 36.6669 54.9349 36.3157 54.3098 35.6906C53.6847 35.0655 53.3335 34.2176 53.3335 33.3336C53.3335 31.5655 52.6311 29.8698 51.3809 28.6195C50.1306 27.3693 48.4349 26.6669 46.6668 26.6669C45.7828 26.6669 44.9349 26.3157 44.3098 25.6906C43.6847 25.0655 43.3335 24.2176 43.3335 23.3336Z" fill="#ABABAB"/>
</svg>