<svg xmlns="http://www.w3.org/2000/svg" width="80" height="80" viewBox="0 0 80 80" fill="none">
<path d="M43.3333 33.3337C46.8696 33.3337 50.2609 31.9289 52.7614 29.4284C55.2619 26.9279 56.6667 23.5365 56.6667 20.0003C56.6667 16.4641 55.2619 13.0727 52.7614 10.5722C50.2609 8.07175 46.8696 6.66699 43.3333 6.66699C39.7971 6.66699 36.4057 8.07175 33.9052 10.5722C31.4048 13.0727 30 16.4641 30 20.0003C30 23.5365 31.4048 26.9279 33.9052 29.4284C36.4057 31.9289 39.7971 33.3337 43.3333 33.3337Z" fill="#ABABAB"/>
<path d="M10 16.6667V14.1667C10 11.8667 11.8667 10 14.1667 10C16.4667 10 18.3 11.8667 18.6 14.1667C20.4 28.8333 31.5333 40 43.3333 40H46.6667C53.7391 40 60.5219 42.8095 65.5228 47.8105C70.5238 52.8115 73.3333 59.5942 73.3333 66.6667C73.3333 68.4348 72.631 70.1305 71.3807 71.3807C70.1305 72.631 68.4348 73.3333 66.6667 73.3333C66.5166 73.3324 66.3709 73.2834 66.2508 73.1933C66.1308 73.1033 66.0429 72.9771 66 72.8333C64.9908 70.0411 63.5018 67.4466 61.6 65.1667C61.1 64.5 60.2 64.9667 60.3 65.7333L61.1333 72.4C61.2 72.9 60.8 73.3333 60.3 73.3333H30C28.2319 73.3333 26.5362 72.631 25.286 71.3807C24.0357 70.1305 23.3333 68.4348 23.3333 66.6667V59.2667C23.3333 54.0333 21.1 49.1 18.2333 44.7C12.9083 36.3153 10.0547 26.5993 10 16.6667Z" fill="#ABABAB"/>
</svg>