<svg xmlns="http://www.w3.org/2000/svg" width="13" height="15" viewBox="0 0 13 15" fill="none">
<path d="M0 2.42684V3.37806C0 6.00977 1.40146 8.31172 3.4878 9.5927V12.5732H13V11.3049C13 9.61806 9.62 8.7683 7.92683 8.7683C7.92683 8.7683 7.81902 8.7683 7.76829 8.7683C4.7561 8.7683 2.21951 6.23172 2.21951 3.37806V2.42684H0ZM7.92683 2.42684C6.52591 2.42684 5.39024 3.56251 5.39024 4.96343C5.39024 6.36434 6.52591 7.50001 7.92683 7.50001C9.32775 7.50001 10.4634 6.36434 10.4634 4.96343C10.4634 3.56251 9.32775 2.42684 7.92683 2.42684Z" fill="#72767D"/>
</svg>