<svg xmlns="http://www.w3.org/2000/svg" width="80" height="80" viewBox="0 0 80 80" fill="none">
<path d="M49.9997 46.6661C51.7678 46.6661 53.4635 45.9637 54.7137 44.7135C55.964 43.4632 56.6663 41.7675 56.6663 39.9994C56.6663 38.2313 55.964 36.5356 54.7137 35.2854C53.4635 34.0351 51.7678 33.3328 49.9997 33.3328C48.2316 33.3328 46.5359 34.0351 45.2856 35.2854C44.0354 36.5356 43.333 38.2313 43.333 39.9994C43.333 41.7675 44.0354 43.4632 45.2856 44.7135C46.5359 45.9637 48.2316 46.6661 49.9997 46.6661Z" fill="#ABABAB"/>
<path fill-rule="evenodd" clip-rule="evenodd" d="M23.3333 13.333C22.4493 13.333 21.6014 13.6842 20.9763 14.3093C20.3512 14.9344 20 15.7823 20 16.6663C20 17.5504 20.3512 18.3982 20.9763 19.0234C21.6014 19.6485 22.4493 19.9997 23.3333 19.9997H33.3333C34.2174 19.9997 35.0652 20.3509 35.6904 20.976C36.3155 21.6011 36.6667 22.449 36.6667 23.333C36.6667 24.2171 36.3155 25.0649 35.6904 25.69C35.0652 26.3152 34.2174 26.6663 33.3333 26.6663H18.3333C17.4493 26.6663 16.6014 27.0175 15.9763 27.6427C15.3512 28.2678 15 29.1156 15 29.9997C15 30.8837 15.3512 31.7316 15.9763 32.3567C16.6014 32.9818 17.4493 33.333 18.3333 33.333H26.6667C27.5507 33.333 28.3986 33.6842 29.0237 34.3093C29.6488 34.9344 30 35.7823 30 36.6663C30 37.5504 29.6488 38.3982 29.0237 39.0234C28.3986 39.6485 27.5507 39.9997 26.6667 39.9997H20C19.1159 39.9997 18.2681 40.3509 17.643 40.976C17.0179 41.6011 16.6667 42.449 16.6667 43.333C16.6667 44.2171 17.0179 45.0649 17.643 45.69C18.2681 46.3152 19.1159 46.6663 20 46.6663H24.1667C25.4134 51.495 27.9892 55.8773 31.6015 59.3155C35.2138 62.7537 39.7178 65.1101 44.6021 66.1171C49.4864 67.124 54.5551 66.7412 59.2328 65.012C63.9104 63.2829 68.0094 60.2767 71.0643 56.3349C74.1192 52.3931 76.0075 47.6737 76.5149 42.7126C77.0222 37.7514 76.1282 32.7475 73.9344 28.2689C71.7406 23.7904 68.3349 20.0167 64.1041 17.3766C59.8734 14.7364 54.987 13.3355 50 13.333H23.3333ZM50 53.333C53.5362 53.333 56.9276 51.9282 59.4281 49.4278C61.9286 46.9273 63.3333 43.5359 63.3333 39.9997C63.3333 36.4635 61.9286 33.0721 59.4281 30.5716C56.9276 28.0711 53.5362 26.6663 50 26.6663C46.4638 26.6663 43.0724 28.0711 40.5719 30.5716C38.0714 33.0721 36.6667 36.4635 36.6667 39.9997C36.6667 43.5359 38.0714 46.9273 40.5719 49.4278C43.0724 51.9282 46.4638 53.333 50 53.333Z" fill="#ABABAB"/>
<path d="M8.33301 33.3327C9.21706 33.3327 10.0649 32.9815 10.69 32.3564C11.3152 31.7312 11.6663 30.8834 11.6663 29.9993C11.6663 29.1153 11.3152 28.2674 10.69 27.6423C10.0649 27.0172 9.21706 26.666 8.33301 26.666H6.66634C5.78229 26.666 4.93444 27.0172 4.30932 27.6423C3.6842 28.2674 3.33301 29.1153 3.33301 29.9993C3.33301 30.8834 3.6842 31.7312 4.30932 32.3564C4.93444 32.9815 5.78229 33.3327 6.66634 33.3327H8.33301Z" fill="#ABABAB"/>
</svg>