<svg xmlns="http://www.w3.org/2000/svg" width="80" height="80" viewBox="0 0 80 80" fill="none">
<path d="M8.76625 13.9666C9.357 11.8598 10.6224 10.0049 12.3685 8.68636C14.1146 7.36777 16.2449 6.65825 18.4329 6.66658H23.3329C24.217 6.66658 25.0648 7.01777 25.6899 7.64289C26.3151 8.26801 26.6663 9.11585 26.6663 9.99991V23.2666C26.6795 24.8231 26.3375 26.3622 25.6663 27.7666C24.8416 29.4612 23.5503 30.8853 21.9442 31.8714C20.3382 32.8574 18.484 33.3646 16.5996 33.3332C9.93292 33.3332 5.13292 26.9999 6.93292 20.5666L8.76625 13.9666ZM33.3329 6.66658C32.4489 6.66658 31.601 7.01777 30.9759 7.64289C30.3508 8.26801 29.9996 9.11585 29.9996 9.99991V23.3332C29.9996 25.9854 31.0532 28.5289 32.9285 30.4043C34.8039 32.2797 37.3474 33.3332 39.9996 33.3332C42.6345 33.3334 45.163 32.2935 47.0355 30.4398C48.908 28.586 49.9732 26.068 49.9996 23.4332V9.99991C49.9996 9.11585 49.6484 8.26801 49.0233 7.64289C48.3982 7.01777 47.5503 6.66658 46.6663 6.66658H33.3329ZM56.6663 6.66658C55.7822 6.66658 54.9343 7.01777 54.3092 7.64289C53.6841 8.26801 53.3329 9.11585 53.3329 9.99991V23.2666C53.3325 23.3221 53.3325 23.3777 53.3329 23.4332C53.3236 24.75 53.5789 26.0553 54.0836 27.2716C54.5883 28.4878 55.3322 29.5904 56.2711 30.5137C57.2099 31.437 58.3247 32.1624 59.5493 32.6467C60.7738 33.1311 62.0831 33.3645 63.3996 33.3332C70.0663 33.3332 74.8663 26.9999 73.0663 20.5666L71.2329 13.9666C70.6422 11.8598 69.3768 10.0049 67.6307 8.68636C65.8846 7.36777 63.7543 6.65825 61.5663 6.66658H56.6663Z" fill="#ABABAB"/>
<path d="M70 38.0665V63.3331C70 65.9853 68.9464 68.5288 67.0711 70.4042C65.1957 72.2796 62.6522 73.3331 60 73.3331H50.8333C50.6123 73.3331 50.4004 73.2453 50.2441 73.0891C50.0878 72.9328 50 72.7208 50 72.4998V53.3331C50 51.565 49.2976 49.8693 48.0474 48.6191C46.7971 47.3689 45.1014 46.6665 43.3333 46.6665H36.6667C34.8986 46.6665 33.2029 47.3689 31.9526 48.6191C30.7024 49.8693 30 51.565 30 53.3331V72.4998C30 72.9665 29.6333 73.3331 29.1667 73.3331H20C17.3478 73.3331 14.8043 72.2796 12.9289 70.4042C11.0536 68.5288 10 65.9853 10 63.3331V38.0665C10 37.4665 10.6667 37.0665 11.2333 37.2665C14.0263 38.3957 17.0965 38.6498 20.0371 37.995C22.9777 37.3402 25.65 35.8074 27.7 33.5998C28.0333 33.1998 28.7 33.1998 29.0333 33.5998C30.4342 35.1082 32.1311 36.3113 34.0181 37.1341C35.9051 37.9569 37.9415 38.3815 40 38.3815C42.0585 38.3815 44.0949 37.9569 45.9819 37.1341C47.8689 36.3113 49.5658 35.1082 50.9667 33.5998C51.3 33.1998 51.9667 33.1998 52.3 33.5998C54.3473 35.8114 57.0196 37.3469 59.9613 38.002C62.903 38.657 65.9744 38.4004 68.7667 37.2665C69.3333 37.0331 70 37.4665 70 38.0665Z" fill="#ABABAB"/>
</svg>