<svg xmlns="http://www.w3.org/2000/svg" width="80" height="80" viewBox="0 0 80 80" fill="none">
<path d="M13.3335 13.3335C10.6813 13.3335 8.13779 14.3871 6.26243 16.2624C4.38706 18.1378 3.3335 20.6813 3.3335 23.3335V56.6668C3.3335 59.319 4.38706 61.8625 6.26243 63.7379C8.13779 65.6133 10.6813 66.6668 13.3335 66.6668H50.0002C52.6523 66.6668 55.1959 65.6133 57.0712 63.7379C58.9466 61.8625 60.0002 59.319 60.0002 56.6668V49.6002C59.9958 50.2214 60.1652 50.8314 60.4891 51.3615C60.8131 51.8916 61.2787 52.3206 61.8335 52.6002L71.8335 57.6002C72.3435 57.8572 72.9109 57.9788 73.4814 57.9535C74.0519 57.9282 74.6063 57.7567 75.0915 57.4556C75.5766 57.1544 75.9763 56.7337 76.2522 56.2337C76.528 55.7337 76.6708 55.1712 76.6668 54.6002V25.4002C76.6708 24.8291 76.528 24.2666 76.2522 23.7666C75.9763 23.2666 75.5766 22.8459 75.0915 22.5448C74.6063 22.2436 74.0519 22.0721 73.4814 22.0468C72.9109 22.0215 72.3435 22.1432 71.8335 22.4002L61.8335 27.4002C61.2787 27.6797 60.8131 28.1087 60.4891 28.6388C60.1652 29.1689 59.9958 29.7789 60.0002 30.4002V23.3335C60.0002 20.6813 58.9466 18.1378 57.0712 16.2624C55.1959 14.3871 52.6523 13.3335 50.0002 13.3335H13.3335Z" fill="#ABABAB"/>
</svg>