<svg xmlns="http://www.w3.org/2000/svg" width="81" height="80" viewBox="0 0 81 80" fill="none">
<path d="M56.1667 29.0006C56.6481 28.3587 56.8818 27.5646 56.825 26.7643C56.7681 25.9639 56.4244 25.2109 55.857 24.6436C55.2897 24.0762 54.5367 23.7325 53.7363 23.6756C52.9359 23.6187 52.1419 23.8525 51.5 24.3339L40.6333 35.1339C40.0057 35.7616 39.653 36.6129 39.653 37.5006C39.653 38.3882 40.0057 39.2396 40.6333 39.8672C41.261 40.4949 42.1123 40.8475 43 40.8475C43.8877 40.8475 44.739 40.4949 45.3667 39.8672L56.1667 29.0006ZM12.8333 37.6672C12.1914 37.1858 11.3974 36.9521 10.597 37.009C9.79668 37.0658 9.04369 37.4095 8.47632 37.9769C7.90894 38.5443 7.56527 39.2972 7.50839 40.0976C7.45151 40.898 7.68524 41.692 8.16667 42.3339L23.1667 57.3339C23.8086 57.8153 24.6026 58.0491 25.403 57.9922C26.2033 57.9353 26.9563 57.5916 27.5237 57.0243C28.0911 56.4569 28.4347 55.7039 28.4916 54.9035C28.5485 54.1032 28.3148 53.3091 27.8333 52.6672L12.8333 37.6672Z" fill="#ABABAB"/>
<path d="M72.834 32.3331C73.3154 31.6912 73.5491 30.8972 73.4922 30.0968C73.4354 29.2964 73.0917 28.5434 72.5243 27.9761C71.9569 27.4087 71.2039 27.065 70.4036 27.0081C69.6032 26.9513 68.8092 27.185 68.1673 27.6664L43.834 51.9331L32.834 40.9331C32.1925 40.3912 31.3701 40.1114 30.5312 40.1496C29.6923 40.1879 28.8988 40.5413 28.3093 41.1393C27.7197 41.7372 27.3776 42.5357 27.3512 43.375C27.3249 44.2143 27.6164 45.0327 28.1673 45.6664L41.5006 58.9998C42.1237 59.6105 42.9614 59.9526 43.834 59.9526C44.7065 59.9526 45.5442 59.6105 46.1673 58.9998L72.834 32.3331Z" fill="#ABABAB"/>
</svg>