<svg xmlns="http://www.w3.org/2000/svg" width="80" height="80" viewBox="0 0 80 80" fill="none">
<path fill-rule="evenodd" clip-rule="evenodd" d="M33.333 13.3332C33.333 15.1013 34.0354 16.797 35.2856 18.0472C36.5359 19.2975 38.2316 19.9998 39.9997 19.9998C41.7678 19.9998 43.4635 19.2975 44.7137 18.0472C45.964 16.797 46.6663 15.1013 46.6663 13.3332C46.6663 11.5651 45.964 9.86937 44.7137 8.61913C43.4635 7.36888 41.7678 6.6665 39.9997 6.6665C38.2316 6.6665 36.5359 7.36888 35.2856 8.61913C34.0354 9.86937 33.333 11.5651 33.333 13.3332ZM39.9997 46.6665C38.2316 46.6665 36.5359 45.9641 35.2856 44.7139C34.0354 43.4636 33.333 41.7679 33.333 39.9998C33.333 38.2317 34.0354 36.536 35.2856 35.2858C36.5359 34.0356 38.2316 33.3332 39.9997 33.3332C41.7678 33.3332 43.4635 34.0356 44.7137 35.2858C45.964 36.536 46.6663 38.2317 46.6663 39.9998C46.6663 41.7679 45.964 43.4636 44.7137 44.7139C43.4635 45.9641 41.7678 46.6665 39.9997 46.6665ZM39.9997 73.3332C38.2316 73.3332 36.5359 72.6308 35.2856 71.3805C34.0354 70.1303 33.333 68.4346 33.333 66.6665C33.333 64.8984 34.0354 63.2027 35.2856 61.9525C36.5359 60.7022 38.2316 59.9998 39.9997 59.9998C41.7678 59.9998 43.4635 60.7022 44.7137 61.9525C45.964 63.2027 46.6663 64.8984 46.6663 66.6665C46.6663 68.4346 45.964 70.1303 44.7137 71.3805C43.4635 72.6308 41.7678 73.3332 39.9997 73.3332Z" fill="#ABABAB"/>
</svg>