<svg xmlns="http://www.w3.org/2000/svg" width="81" height="80" viewBox="0 0 81 80" fill="none">
<path d="M48 3.33301C49.3667 3.33301 50.5 4.46634 50.5 5.83301V9.99967H68C69.3667 9.99967 70.5 11.133 70.5 12.4997V14.1663C70.5 15.533 69.3667 16.6663 68 16.6663H13C12.337 16.6663 11.7011 16.403 11.2322 15.9341C10.7634 15.4653 10.5 14.8294 10.5 14.1663V12.4997C10.5 11.133 11.6333 9.99967 13 9.99967H30.5V5.83301C30.5 4.46634 31.6333 3.33301 33 3.33301H48Z" fill="#ABABAB"/>
<path fill-rule="evenodd" clip-rule="evenodd" d="M17.3667 23.333C16.9116 23.3322 16.4612 23.4246 16.0431 23.6045C15.6251 23.7843 15.2483 24.0479 14.936 24.3789C14.6237 24.71 14.3825 25.1014 14.2273 25.5292C14.072 25.957 14.006 26.4121 14.0333 26.8663L16.5667 67.2997C16.7279 69.8406 17.8523 72.2243 19.7104 73.9648C21.5686 75.7053 24.0207 76.6715 26.5667 76.6663H54.4334C56.9794 76.6715 59.4314 75.7053 61.2896 73.9648C63.1478 72.2243 64.2721 69.8406 64.4334 67.2997L66.9334 26.8663C66.9607 26.4121 66.8947 25.957 66.7394 25.5292C66.5842 25.1014 66.343 24.71 66.0307 24.3789C65.7184 24.0479 65.3416 23.7843 64.9236 23.6045C64.5056 23.4246 64.0551 23.3322 63.6 23.333H17.4H17.3667ZM37.1667 39.9997C37.1667 39.1156 36.8155 38.2678 36.1904 37.6427C35.5653 37.0175 34.7174 36.6663 33.8334 36.6663C32.9493 36.6663 32.1015 37.0175 31.4763 37.6427C30.8512 38.2678 30.5 39.1156 30.5 39.9997V59.9997C30.5 60.8837 30.8512 61.7316 31.4763 62.3567C32.1015 62.9818 32.9493 63.333 33.8334 63.333C34.7174 63.333 35.5653 62.9818 36.1904 62.3567C36.8155 61.7316 37.1667 60.8837 37.1667 59.9997V39.9997ZM47.1667 36.6663C48.0507 36.6663 48.8986 37.0175 49.5237 37.6427C50.1488 38.2678 50.5 39.1156 50.5 39.9997V59.9997C50.5 60.8837 50.1488 61.7316 49.5237 62.3567C48.8986 62.9818 48.0507 63.333 47.1667 63.333C46.2826 63.333 45.4348 62.9818 44.8097 62.3567C44.1845 61.7316 43.8334 60.8837 43.8334 59.9997V39.9997C43.8334 39.1156 44.1845 38.2678 44.8097 37.6427C45.4348 37.0175 46.2826 36.6663 47.1667 36.6663Z" fill="#ABABAB"/>
</svg>