<svg xmlns="http://www.w3.org/2000/svg" width="13" height="12" viewBox="0 0 13 12" fill="none">
<path fill-rule="evenodd" clip-rule="evenodd" d="M9.63822 0.635986L10.7226 0.643217L10.7347 2.4013L12.4928 2.4134L12.5 3.49777L10.7415 3.48605L10.7536 5.24413L9.66889 5.23728L9.65717 3.47882L7.89871 3.4671L7.89186 2.38234L9.64994 2.39445L9.63822 0.635986ZM6.96385 4.81342C6.96385 6.01709 5.99697 6.99695 4.80922 6.99695C3.62149 6.99695 2.65461 6.01709 2.65461 4.81342C2.65461 3.60975 3.62149 2.62989 4.80922 2.62989C5.99697 2.62989 6.96385 3.60975 6.96385 4.81342ZM0.5 10.8181C0.5 8.88953 2.27163 7.54283 4.80922 7.54283C7.34684 7.54283 9.11846 8.88953 9.11846 10.8181V11.364H0.5V10.8181Z" fill="#C0BCBC"/>
</svg>