<svg xmlns="http://www.w3.org/2000/svg" width="80" height="80" viewBox="0 0 80 80" fill="none">
<path d="M39.9997 73.3337C47.3965 73.3279 54.5812 70.862 60.4226 66.3244C66.2639 61.7867 70.4301 55.435 72.265 48.2695C74.1 41.1039 73.4994 33.5316 70.558 26.7448C67.6165 19.9581 62.5013 14.3425 56.0177 10.7822C49.5341 7.22201 42.0505 5.91944 34.7453 7.07963C27.4401 8.23981 20.7283 11.7968 15.6667 17.1906C10.6052 22.5844 7.48142 29.5085 6.78736 36.8726C6.09331 44.2367 7.86836 51.6226 11.833 57.867C12.2664 58.5004 12.1997 59.3337 11.6997 59.9004L4.83303 67.8004C4.41024 68.2816 4.13507 68.8745 4.04046 69.5081C3.94585 70.1416 4.03581 70.789 4.29956 71.3728C4.56331 71.9566 4.98969 72.452 5.52767 72.7998C6.06565 73.1475 6.69244 73.3329 7.33303 73.3337H39.9997Z" fill="#ABABAB"/>
</svg>