<svg xmlns="http://www.w3.org/2000/svg" width="13" height="14" viewBox="0 0 13 14" fill="none">
<path d="M6.41995 1.05165C6.16405 0.946637 5.86984 1.0046 5.67416 1.19963L2.73684 4.40872H0.684211C0.307895 4.40872 0 4.71626 0 5.09063V9.18209C0 9.55715 0.307895 9.86401 0.684211 9.86401H2.73684L5.67416 13.0745C5.86984 13.2695 6.16405 13.3281 6.41995 13.2224C6.67584 13.1167 6.84211 12.8678 6.84211 12.5917V1.68106C6.84211 1.40625 6.67584 1.15598 6.41995 1.05165ZM8.21053 2.36291V3.72674C10.0969 3.72674 11.6316 5.25696 11.6316 7.13635C11.6316 9.01639 10.0969 10.5459 8.21053 10.5459V11.9098C10.8516 11.9098 13 9.76922 13 7.13635C13 4.50481 10.8516 2.36291 8.21053 2.36291ZM8.21053 5.09057C9.34221 5.09057 10.2632 6.00914 10.2632 7.13635C10.2632 8.26492 9.34221 9.18209 8.21053 9.18209V7.81826C8.58753 7.81826 8.89474 7.51208 8.89474 7.13635C8.89474 6.76061 8.58753 6.45443 8.21053 6.45443V5.09057Z" fill="#72767D"/>
</svg>