<svg xmlns="http://www.w3.org/2000/svg" width="13" height="14" viewBox="0 0 13 14" fill="none">
<path fill-rule="evenodd" clip-rule="evenodd" d="M7.79998 4.39998C7.79998 5.83324 6.63389 6.99999 5.19999 6.99999C3.76674 6.99999 2.59999 5.83324 2.59999 4.39998C2.59999 2.96674 3.76609 1.79999 5.19999 1.79999C6.63389 1.79999 7.79998 2.96674 7.79998 4.39998ZM0 11.55C0 9.25354 2.1385 7.64999 5.19999 7.64999C8.26213 7.64999 10.4 9.25354 10.4 11.55V12.2H0V11.55ZM11.7 12.2H13V11.55C13 9.88423 11.8752 8.58306 10.0888 7.99397C11.0903 8.88934 11.7 10.1199 11.7 11.55V12.2ZM10.4 4.39998C10.4 5.6361 9.53267 6.67395 8.37417 6.93609C8.32139 6.91438 8.26816 6.89326 8.21453 6.87272C8.76775 6.19932 9.10003 5.33786 9.10003 4.39998C9.10003 3.4115 8.73089 2.50792 8.12308 1.81995C9.40501 1.97951 10.4 3.07605 10.4 4.39998Z" fill="#72767D"/>
</svg>