<svg width="74" height="41" viewBox="0 0 74 41" fill="none" xmlns="http://www.w3.org/2000/svg">
<path d="M68.6658 39.3329L68.2324 39.7996C67.8227 40.2223 67.2951 40.512 66.7185 40.6309C66.1418 40.7498 65.5427 40.6924 64.9991 40.4662L51.3658 34.7996C50.6241 34.4881 50.0217 33.9166 49.6718 33.1922C49.3219 32.4679 49.2487 31.6408 49.4658 30.8662L51.8991 21.8662C44.4324 11.8662 29.5658 11.8662 22.0991 21.8662L24.4324 28.8662C24.6802 29.6097 24.6552 30.4171 24.3621 31.1439C24.0689 31.8706 23.5267 32.4694 22.8324 32.8329L9.06577 40.1662C8.51607 40.4641 7.8848 40.5764 7.26609 40.4863C6.64737 40.3962 6.07435 40.1085 5.63244 39.6662L5.29911 39.3329C2.30505 36.298 0.539596 32.2627 0.342664 28.0041C0.145732 23.7454 1.53125 19.5645 4.23244 16.2662C8.19256 11.3964 13.1884 7.47054 18.8564 4.77416C24.5245 2.07778 30.7224 0.678711 36.9991 0.678711C43.2759 0.678711 49.4737 2.07778 55.1418 4.77416C60.8099 7.47054 65.8056 11.3964 69.7658 16.2662C72.467 19.5645 73.8525 23.7454 73.6556 28.0041C73.4586 32.2627 71.6932 36.298 68.6991 39.3329H68.6658Z" fill="#ffffff"/>
</svg>
