<svg width="81" height="80" viewBox="0 0 81 80" fill="none" xmlns="http://www.w3.org/2000/svg">
<path d="M40.4994 10.0004C40.4994 9.11635 40.1482 8.2685 39.523 7.64338C38.8979 7.01826 38.0501 6.66707 37.166 6.66707H36.966C36.5033 6.66394 36.0451 6.75716 35.6204 6.9408C35.1958 7.12444 34.814 7.39448 34.4993 7.73373L20.2327 23.3337H10.4993C9.61529 23.3337 8.76745 23.6849 8.14233 24.31C7.5172 24.9352 7.16602 25.783 7.16602 26.6671V53.3337C7.16602 54.2178 7.5172 55.0656 8.14233 55.6908C8.76745 56.3159 9.61529 56.6671 10.4993 56.6671H20.2327L34.4993 72.2671C34.814 72.6063 35.1958 72.8764 35.6204 73.06C36.0451 73.2436 36.5033 73.3369 36.966 73.3337H37.166C38.0501 73.3337 38.8979 72.9825 39.523 72.3574C40.1482 71.7323 40.4994 70.8845 40.4994 70.0004V10.0004ZM50.8327 69.1671C48.8994 69.6337 47.166 68.0671 47.166 66.1004V66.0004C47.166 64.3337 48.3994 62.9337 49.9994 62.5004C54.9282 61.1466 59.2762 58.2117 62.3752 54.1468C65.4741 50.0819 67.1525 45.1118 67.1525 40.0004C67.1525 34.889 65.4741 29.9189 62.3752 25.854C59.2762 21.7891 54.9282 18.8542 49.9994 17.5004C49.2078 17.31 48.5012 16.8638 47.9889 16.2311C47.4767 15.5983 47.1874 14.8142 47.166 14.0004V13.9004C47.166 11.9004 48.8994 10.3671 50.8327 10.8337C57.3809 12.4102 63.2081 16.1443 67.3763 21.435C71.5444 26.7257 73.8109 33.2651 73.8109 40.0004C73.8109 46.7357 71.5444 53.2751 67.3763 58.5658C63.2081 63.8565 57.3809 67.5906 50.8327 69.1671Z" fill="#ABABAB"/>
<path d="M51.0327 55.0332C49.1327 55.9665 47.166 54.3665 47.166 52.2665V51.7999C47.166 50.3665 48.0993 49.1332 49.266 48.3999C50.6695 47.4933 51.8234 46.2495 52.6225 44.7822C53.4215 43.3148 53.8402 41.6707 53.8402 39.9999C53.8402 38.3291 53.4215 36.6849 52.6225 35.2175C51.8234 33.7502 50.6695 32.5064 49.266 31.5999C48.0993 30.8332 47.166 29.5999 47.166 28.1999V27.7332C47.166 25.6332 49.1327 24.0665 51.0327 24.9665C53.8686 26.3239 56.2627 28.4557 57.9386 31.1159C59.6145 33.776 60.5037 36.8559 60.5037 39.9999C60.5037 43.1439 59.6145 46.2238 57.9386 48.8839C56.2627 51.544 53.8686 53.6758 51.0327 55.0332Z" fill="#ABABAB"/>
</svg>
