<svg width="80" height="80" viewBox="0 0 80 80" fill="none" xmlns="http://www.w3.org/2000/svg">
<path fill="currentColor" d="M46.5335 18.1987L61.8002 33.4654C62.11 33.7778 62.4787 34.0258 62.8849 34.195C63.2911 34.3642 63.7268 34.4514 64.1668 34.4514C64.6069 34.4514 65.0426 34.3642 65.4487 34.195C65.8549 34.0258 66.2236 33.7778 66.5335 33.4654L71.1335 28.8654C72.3752 27.6163 73.0721 25.9266 73.0721 24.1654C73.0721 22.4041 72.3752 20.7145 71.1335 19.4654L60.5335 8.86538C59.2844 7.6237 57.5947 6.92676 55.8335 6.92676C54.0723 6.92676 52.3826 7.6237 51.1335 8.86538L46.5335 13.4654C46.2211 13.7753 45.9731 14.1439 45.8039 14.5501C45.6346 14.9563 45.5475 15.392 45.5475 15.832C45.5475 16.2721 45.6346 16.7078 45.8039 17.114C45.9731 17.5202 46.2211 17.8888 46.5335 18.1987ZM7.03349 67.1987L9.46682 53.132C9.81407 51.1008 10.7803 49.2265 12.2335 47.7654L38.4668 21.532C38.7767 21.2196 39.1454 20.9716 39.5516 20.8024C39.9578 20.6332 40.3935 20.546 40.8335 20.546C41.2735 20.546 41.7092 20.6332 42.1154 20.8024C42.5216 20.9716 42.8903 21.2196 43.2002 21.532L58.4668 36.7987C58.7793 37.1086 59.0272 37.4773 59.1965 37.8835C59.3657 38.2897 59.4528 38.7253 59.4528 39.1654C59.4528 39.6054 59.3657 40.0411 59.1965 40.4473C59.0272 40.8535 58.7793 41.2222 58.4668 41.532L32.2335 67.7654C30.7813 69.2125 28.9195 70.1783 26.9002 70.532L12.8002 72.9654C12.0129 73.0991 11.2052 73.0423 10.4444 72.7998C9.68361 72.5573 8.99197 72.1361 8.42736 71.5715C7.86274 71.0069 7.44156 70.3153 7.19906 69.5545C6.95655 68.7937 6.89978 67.9859 7.03349 67.1987Z" fill="#ABABAB"/>
</svg>
