<svg width="80" height="80" viewBox="0 0 80 80" fill="none" xmlns="http://www.w3.org/2000/svg">
<path d="M40.0003 6.66699C36.4641 6.66699 33.0727 8.07175 30.5722 10.5722C28.0717 13.0727 26.667 16.4641 26.667 20.0003V33.3337C26.667 36.8699 28.0717 40.2613 30.5722 42.7617C33.0727 45.2622 36.4641 46.667 40.0003 46.667C43.5365 46.667 46.9279 45.2622 49.4284 42.7617C51.9289 40.2613 53.3337 36.8699 53.3337 33.3337V20.0003C53.3337 16.4641 51.9289 13.0727 49.4284 10.5722C46.9279 8.07175 43.5365 6.66699 40.0003 6.66699Z" fill="#ABABAB"/>
<path d="M19.9997 33.3333C19.9997 32.4493 19.6485 31.6014 19.0234 30.9763C18.3982 30.3512 17.5504 30 16.6663 30C15.7823 30 14.9344 30.3512 14.3093 30.9763C13.6842 31.6014 13.333 32.4493 13.333 33.3333C13.3308 39.83 15.7003 46.1041 19.9966 50.9774C24.293 55.8507 30.2206 58.9879 36.6663 59.8V66.6667H29.9997C29.1156 66.6667 28.2678 67.0179 27.6427 67.643C27.0175 68.2681 26.6663 69.1159 26.6663 70C26.6663 70.8841 27.0175 71.7319 27.6427 72.357C28.2678 72.9821 29.1156 73.3333 29.9997 73.3333H49.9997C50.8837 73.3333 51.7316 72.9821 52.3567 72.357C52.9818 71.7319 53.333 70.8841 53.333 70C53.333 69.1159 52.9818 68.2681 52.3567 67.643C51.7316 67.0179 50.8837 66.6667 49.9997 66.6667H43.333V59.8C49.7788 58.9879 55.7064 55.8507 60.0027 50.9774C64.299 46.1041 66.6686 39.83 66.6663 33.3333C66.6663 32.4493 66.3152 31.6014 65.69 30.9763C65.0649 30.3512 64.2171 30 63.333 30C62.449 30 61.6011 30.3512 60.976 30.9763C60.3509 31.6014 59.9997 32.4493 59.9997 33.3333C59.9997 38.6377 57.8925 43.7247 54.1418 47.4755C50.3911 51.2262 45.304 53.3333 39.9997 53.3333C34.6953 53.3333 29.6083 51.2262 25.8575 47.4755C22.1068 43.7247 19.9997 38.6377 19.9997 33.3333Z" fill="#ABABAB"/>
</svg>
