<svg width="80" height="80" viewBox="0 0 80 80" fill="none" xmlns="http://www.w3.org/2000/svg">
<path d="M9 75.667L75.6667 9.00033C76.1481 8.35842 76.3818 7.5644 76.3249 6.76403C76.2681 5.96367 75.9244 5.21068 75.357 4.64331C74.7896 4.07594 74.0367 3.73226 73.2363 3.67538C72.4359 3.6185 71.6419 3.85223 71 4.33366L4.33333 71.0003C3.95127 71.2869 3.63525 71.6522 3.40666 72.0715C3.17806 72.4908 3.04224 72.9543 3.00839 73.4307C2.97453 73.9071 3.04344 74.3852 3.21043 74.8326C3.37743 75.28 3.63862 75.6863 3.97631 76.024C4.31401 76.3617 4.72032 76.6229 5.16775 76.7899C5.61517 76.9569 6.09326 77.0258 6.56963 76.9919C7.046 76.9581 7.50954 76.8223 7.92885 76.5937C8.34816 76.3651 8.71346 76.0491 9 75.667ZM36 57.7337C35.3 58.4337 35.6667 59.667 36.6667 59.8003V66.667H30C29.1159 66.667 28.2681 67.0182 27.643 67.6433C27.0179 68.2684 26.6667 69.1163 26.6667 70.0003C26.6667 70.8844 27.0179 71.7322 27.643 72.3574C28.2681 72.9825 29.1159 73.3337 30 73.3337H50C50.8841 73.3337 51.7319 72.9825 52.357 72.3574C52.9821 71.7322 53.3333 70.8844 53.3333 70.0003C53.3333 69.1163 52.9821 68.2684 52.357 67.6433C51.7319 67.0182 50.8841 66.667 50 66.667H43.3333V59.8003C49.7791 58.9882 55.7067 55.851 60.003 50.9777C64.2994 46.1045 66.6689 39.8304 66.6667 33.3337C66.6667 32.4496 66.3155 31.6018 65.6904 30.9766C65.0652 30.3515 64.2174 30.0003 63.3333 30.0003C62.4493 30.0003 61.6014 30.3515 60.9763 30.9766C60.3512 31.6018 60 32.4496 60 33.3337C60 38.167 58.2667 42.6337 55.4 46.1003L55.3333 46.167C53.5763 48.2788 51.4023 50.0052 48.9475 51.2383C46.4927 52.4715 43.8098 53.1848 41.0667 53.3337C40.6402 53.355 40.2366 53.5331 39.9333 53.8337L36 57.767V57.7337ZM51.2 15.067C51.7 14.567 51.8333 13.8003 51.4667 13.2003C49.976 10.6881 47.7016 8.73497 44.993 7.64107C42.2843 6.54717 39.2914 6.37307 36.4742 7.14553C33.657 7.91799 31.1715 9.59425 29.3996 11.9167C27.6277 14.2391 26.6675 17.0792 26.6667 20.0003V33.3337C26.6667 34.3337 26.7667 35.267 27 36.2003C27.2333 37.3337 28.6333 37.6337 29.4667 36.8003L51.2 15.067ZM16.8667 46.6003C17.4 47.5337 18.6333 47.6337 19.3667 46.9003L21.8667 44.4003C22.4 43.867 22.5 43.067 22.1333 42.367C20.7201 39.5661 19.9891 36.4708 20 33.3337C20 32.4496 19.6488 31.6018 19.0237 30.9766C18.3986 30.3515 17.5507 30.0003 16.6667 30.0003C15.7826 30.0003 14.9348 30.3515 14.3096 30.9766C13.6845 31.6018 13.3333 32.4496 13.3333 33.3337C13.3333 38.167 14.6333 42.7003 16.8667 46.6003Z" fill="#F23F42"/>
</svg>
