<svg width="81" height="80" viewBox="0 0 81 80" fill="none" xmlns="http://www.w3.org/2000/svg">
<g clip-path="url(#clip0_645_9317)">
<path d="M38.9337 36.6665C30.5086 36.6665 22.4286 40.0133 16.4712 45.9707C10.5138 51.9282 7.16699 60.0081 7.16699 68.4332C7.16699 71.1332 9.36699 73.3332 12.067 73.3332H12.8003C13.6003 73.3332 14.267 72.7665 14.467 71.9998C15.4337 68.2665 17.267 64.7665 18.867 62.2998C19.3337 61.5998 20.3003 61.9665 20.2003 62.7998L19.367 71.4998C19.267 72.4998 20.0337 73.3332 21.0337 73.3332H46.467C46.867 73.3332 47.0337 72.2998 46.667 72.1332C43.2337 70.4665 40.5003 67.3998 40.5003 63.3332C40.5003 60.681 41.5539 58.1375 43.4293 56.2621C45.3046 54.3867 47.8482 53.3332 50.5003 53.3332H67.2337C68.5003 53.3332 69.267 51.9998 68.567 50.9332C65.6757 46.5476 61.741 42.9484 57.1159 40.4584C52.4907 37.9684 47.3198 36.6655 42.067 36.6665H38.9337ZM40.5003 33.3332C44.0365 33.3332 47.4279 31.9284 49.9284 29.4279C52.4289 26.9274 53.8337 23.5361 53.8337 19.9998C53.8337 16.4636 52.4289 13.0722 49.9284 10.5717C47.4279 8.07126 44.0365 6.6665 40.5003 6.6665C36.9641 6.6665 33.5727 8.07126 31.0722 10.5717C28.5717 13.0722 27.167 16.4636 27.167 19.9998C27.167 23.5361 28.5717 26.9274 31.0722 29.4279C33.5727 31.9284 36.9641 33.3332 40.5003 33.3332Z" fill="#ABABAB"/>
<path d="M50.5003 60C49.6163 60 48.7684 60.3512 48.1433 60.9763C47.5182 61.6014 47.167 62.4493 47.167 63.3333C47.167 64.2174 47.5182 65.0652 48.1433 65.6904C48.7684 66.3155 49.6163 66.6667 50.5003 66.6667H77.167C78.051 66.6667 78.8989 66.3155 79.524 65.6904C80.1491 65.0652 80.5003 64.2174 80.5003 63.3333C80.5003 62.4493 80.1491 61.6014 79.524 60.9763C78.8989 60.3512 78.051 60 77.167 60H50.5003Z" fill="#ABABAB"/>
</g>
<defs>
<clipPath id="clip0_645_9317">
<rect width="80" height="80" fill="white" transform="translate(0.5)"/>
</clipPath>
</defs>
</svg>
