<svg width="80" height="80" viewBox="0 0 80 80" fill="none" xmlns="http://www.w3.org/2000/svg">
<path fill-rule="evenodd" clip-rule="evenodd" d="M35.1997 3.66632C33.6663 3.83298 32.8663 5.43298 33.0663 6.93298C33.6663 10.7997 32.433 14.2663 29.7997 15.3663C27.133 16.4663 23.833 14.8663 21.4997 11.6997C20.5997 10.4997 18.8997 9.96632 17.6997 10.8997C15.133 12.8663 12.8663 15.133 10.8997 17.6997C9.96632 18.8997 10.4997 20.5997 11.6997 21.4997C14.8997 23.833 16.4663 27.1663 15.3663 29.7997C14.2663 32.4663 10.7997 33.6663 6.93298 33.0663C5.43298 32.833 3.83298 33.6663 3.63298 35.1997C3.21609 38.3861 3.21609 41.6132 3.63298 44.7996C3.83298 46.333 5.43298 47.133 6.93298 46.933C10.7997 46.333 14.2663 47.5663 15.3663 50.1996C16.4663 52.8663 14.8997 56.1663 11.6997 58.4996C10.4997 59.3996 9.96632 61.0997 10.8997 62.2997C12.8663 64.8663 15.133 67.133 17.6997 69.0996C18.8997 70.033 20.5997 69.4996 21.4997 68.2996C23.833 65.133 27.1663 63.533 29.7997 64.633C32.4663 65.733 33.6663 69.1996 33.0663 73.0663C32.833 74.5663 33.6663 76.1663 35.1997 76.3663C38.3861 76.7832 41.6132 76.7832 44.7996 76.3663C46.333 76.1663 47.133 74.5663 46.933 73.0663C46.333 69.1996 47.5663 65.733 50.1996 64.633C52.8663 63.533 56.1663 65.0996 58.4996 68.2996C59.3996 69.4996 61.0997 70.033 62.2997 69.0996C64.8663 67.133 67.133 64.8663 69.0996 62.2997C70.033 61.0997 69.4996 59.3996 68.2996 58.4996C65.0996 56.1663 63.533 52.833 64.633 50.1996C65.733 47.533 69.1996 46.333 73.0663 46.933C74.5663 47.1663 76.1663 46.333 76.3663 44.7996C76.7832 41.6132 76.7832 38.3861 76.3663 35.1997C76.1663 33.6663 74.5663 32.8663 73.0663 33.0663C69.1996 33.6663 65.733 32.433 64.633 29.7997C63.533 27.133 65.0996 23.833 68.2996 21.4997C69.4996 20.5997 70.033 18.8997 69.0996 17.6997C67.1393 15.1461 64.8532 12.86 62.2997 10.8997C61.0997 9.96632 59.3996 10.4997 58.4996 11.6997C56.1663 14.8997 52.833 16.4663 50.1996 15.3663C47.533 14.2663 46.333 10.7997 46.933 6.93298C47.1663 5.43298 46.333 3.83298 44.7996 3.63298C41.6132 3.21609 38.3861 3.21609 35.1997 3.63298V3.66632ZM53.333 39.9996C53.333 43.5359 51.9282 46.9273 49.4277 49.4277C46.9273 51.9282 43.5359 53.333 39.9996 53.333C36.4634 53.333 33.072 51.9282 30.5716 49.4277C28.0711 46.9273 26.6663 43.5359 26.6663 39.9996C26.6663 36.4634 28.0711 33.072 30.5716 30.5716C33.072 28.0711 36.4634 26.6663 39.9996 26.6663C43.5359 26.6663 46.9273 28.0711 49.4277 30.5716C51.9282 33.072 53.333 36.4634 53.333 39.9996Z" fill="#ABABAB"/>
</svg>
