<svg width="80" height="80" viewBox="0 0 80 80" fill="none" xmlns="http://www.w3.org/2000/svg">
<path d="M75.6667 9.00005C76.1481 8.35815 76.3818 7.56412 76.3249 6.76376C76.2681 5.96339 75.9244 5.2104 75.357 4.64303C74.7896 4.07566 74.0367 3.73199 73.2363 3.67511C72.4359 3.61823 71.6419 3.85196 71 4.33339L4.33333 71C3.95127 71.2866 3.63525 71.6519 3.40666 72.0712C3.17806 72.4905 3.04224 72.954 3.00839 73.4304C2.97453 73.9068 3.04344 74.3849 3.21043 74.8323C3.37743 75.2797 3.63862 75.686 3.97631 76.0237C4.31401 76.3614 4.72032 76.6226 5.16775 76.7896C5.61517 76.9566 6.09326 77.0255 6.56963 76.9917C7.046 76.9578 7.50954 76.822 7.92885 76.5934C8.34816 76.3648 8.71346 76.0488 9 75.6667L75.6667 9.00005ZM56.8667 9.80005C57.0487 9.62423 57.1864 9.40775 57.2684 9.16838C57.3505 8.92901 57.3747 8.67358 57.3389 8.42307C57.3031 8.17256 57.2084 7.93411 57.0626 7.7273C56.9168 7.52049 56.7239 7.35122 56.5 7.23339C49.6115 3.76813 41.8059 2.56275 34.193 3.78863C26.5801 5.01451 19.5475 8.60925 14.095 14.0617C8.64253 19.5142 5.04779 26.5469 3.82191 34.1598C2.59603 41.7726 3.80141 49.5783 7.26667 56.4667C7.73333 57.4667 9.03333 57.6334 9.8 56.8667L20.4667 46.2001C21.3 45.3667 20.9667 43.9334 19.8 43.6667C18.6811 43.4394 17.5418 43.3277 16.4 43.3334H10.1667C9.57591 38.0654 10.3915 32.735 12.5305 27.8848C14.6695 23.0345 18.0555 18.8376 22.3438 15.7214C26.632 12.6051 31.6694 10.6807 36.9432 10.1441C42.2169 9.60758 47.5387 10.478 52.3667 12.6667C53.0333 12.9667 53.8333 12.8334 54.3333 12.3334L56.8667 9.80005ZM67.3333 27.6001C67.1871 27.2818 67.1406 26.9268 67.2001 26.5817C67.2597 26.2366 67.4223 25.9176 67.6667 25.6667L70.2 23.1334C70.3758 22.9514 70.5923 22.8137 70.8317 22.7316C71.0711 22.6495 71.3265 22.6254 71.577 22.6612C71.8275 22.6969 72.0659 22.7916 72.2728 22.9375C72.4796 23.0833 72.6488 23.2761 72.7667 23.5001C77.0269 31.9647 77.8445 41.7501 75.048 50.8044C72.2516 59.8587 66.0583 67.4787 57.7667 72.0667C53.5333 74.4334 48.6667 72.8334 45.9333 69.6C44.4611 67.857 43.6072 65.6758 43.5046 63.3965C43.4021 61.1173 44.0569 58.8682 45.3667 57.0001L49.9667 50.4334C51.5056 48.2379 53.5515 46.4462 55.9307 45.2101C58.3099 43.9741 60.9522 43.3303 63.6333 43.3334H69.8333C70.4166 37.9599 69.5535 32.5281 67.3333 27.6001ZM33.6667 59.6667C34.5 58.8334 35.8333 59.0667 36.1333 60.1334C36.5889 61.7601 36.6387 63.4736 36.2784 65.124C35.9181 66.7743 35.1587 68.3112 34.0667 69.6C32.6872 71.3209 30.752 72.5081 28.5929 72.9582C26.4338 73.4082 24.1854 73.0931 22.2333 72.0667C22.1618 72.0277 22.1002 71.9728 22.0531 71.9062C22.0061 71.8397 21.975 71.7632 21.9621 71.6828C21.9492 71.6023 21.955 71.52 21.9789 71.4421C22.0028 71.3642 22.0442 71.2928 22.1 71.2334L33.7 59.6334L33.6667 59.6667Z" fill="#F23F42"/>
</svg>
