<svg width="80" height="80" viewBox="0 0 80 80" fill="none" xmlns="http://www.w3.org/2000/svg">
<path d="M39.9997 9.99995C35.7772 9.99726 31.6017 10.886 27.7462 12.608C23.8908 14.33 20.4423 16.8465 17.6263 19.9928C14.8103 23.1392 12.6902 26.8446 11.4047 30.8667C10.1192 34.8888 9.69719 39.1369 10.1664 43.3333H16.3997C19.0808 43.3302 21.7231 43.974 24.1023 45.21C26.4815 46.4461 28.5274 48.2378 30.0664 50.4333L34.633 57C35.9428 58.8681 36.5976 61.1172 36.495 63.3964C36.3925 65.6757 35.5386 67.8569 34.0664 69.6C32.6869 71.3208 30.7517 72.508 28.5926 72.9581C26.4335 73.4081 24.1851 73.093 22.233 72.0666C15.1235 68.1286 9.52387 61.94 6.31396 54.4734C3.10406 47.0068 2.46583 38.6854 4.49956 30.8166C6.53329 22.9479 11.1237 15.9778 17.5495 11.0016C23.9754 6.02543 31.8724 3.3252 39.9997 3.3252C48.127 3.3252 56.024 6.02543 62.4499 11.0016C68.8757 15.9778 73.4661 22.9479 75.4998 30.8166C77.5336 38.6854 76.8953 47.0068 73.6854 54.4734C70.4755 61.94 64.8759 68.1286 57.7664 72.0666C53.533 74.4333 48.6664 72.8333 45.933 69.6C44.4608 67.8569 43.6068 65.6757 43.5043 63.3964C43.4018 61.1172 44.0565 58.8681 45.3664 57L49.9664 50.4333C51.5053 48.2378 53.5512 46.4461 55.9304 45.21C58.3096 43.974 60.9519 43.3302 63.633 43.3333H69.833C70.3022 39.1369 69.8802 34.8888 68.5947 30.8667C67.3092 26.8446 65.1891 23.1392 62.3731 19.9928C59.5571 16.8465 56.1086 14.33 52.2532 12.608C48.3977 10.886 44.2222 9.99726 39.9997 9.99995Z" fill="#ABABAB"/>
</svg>
