<svg xmlns="http://www.w3.org/2000/svg" width="16" height="17" viewBox="0 0 16 17" fill="none">
<path fill-rule="evenodd" clip-rule="evenodd" d="M14.4 5.28346H11.9088C12.2696 5.09518 12.6112 4.86524 12.8968 4.58002C13.832 3.64344 13.832 2.11879 12.8968 1.1798C11.9888 0.273666 10.4112 0.272865 9.5032 1.1806C8.1936 2.49214 8.0176 4.96058 8.0016 5.23779C8.00075 5.24622 8.0026 5.25397 8.00446 5.26177L8.00464 5.26252C8.00632 5.26931 8.008 5.27613 8.008 5.28346H7.992C7.992 5.2762 7.9936 5.26944 7.99528 5.26266C7.99728 5.25444 7.99928 5.2462 7.9984 5.23699C7.9832 4.95978 7.8064 2.49134 6.4968 1.1798C5.5888 0.273666 4.0096 0.273666 3.1032 1.18141C2.1672 2.11799 2.1672 3.64263 3.1032 4.58002C3.3888 4.86524 3.7304 5.09518 4.0912 5.28346H1.6C0.7176 5.28346 0 6.00212 0 6.88582V8.48818H16V6.88582C16 6.00212 15.2832 5.28346 14.4 5.28346ZM0.8 14.8976V10.0905H7.2V16.5H2.4C1.5176 16.5 0.8 15.7813 0.8 14.8976ZM8.8 10.0905V16.5H13.6C14.4832 16.5 15.2 15.7813 15.2 14.8976V10.0905H8.8ZM4.23443 2.31347C3.92243 2.62593 3.92243 3.13388 4.23443 3.44715C4.70323 3.91664 5.55603 4.19385 6.26003 4.34046C6.11283 3.63382 5.83763 2.78617 5.36563 2.31347C5.21523 2.16205 5.01443 2.07953 4.80003 2.07953C4.58563 2.07953 4.38483 2.16205 4.23443 2.31347ZM10.6344 2.31428C10.1616 2.78697 9.88723 3.63462 9.73923 4.34207C10.4456 4.19625 11.2928 3.92064 11.7656 3.44715C12.0776 3.13388 12.0768 2.62593 11.7648 2.31267C11.6152 2.16205 11.4144 2.07953 11.2 2.07953C10.9856 2.07953 10.7848 2.16205 10.6344 2.31428Z" fill="#B9BBBE"/>
</svg>