<svg xmlns="http://www.w3.org/2000/svg" width="16" height="15" viewBox="0 0 16 15" fill="none">
  <path fill-rule="evenodd" clip-rule="evenodd" d="M8.14233 4.0656V0.045823H2.14233C1.74451 0.045823 1.36298 0.20385 1.08167 0.485139C0.800369 0.766428 0.642334 1.14794 0.642334 1.54574L0.642334 13.5001C0.642334 13.8979 0.800369 14.2794 1.08167 14.5607C1.36298 14.842 1.74451 15 2.14233 15H14.1423C14.5402 15 14.9217 14.842 15.203 14.5607C15.4843 14.2794 15.6423 13.8979 15.6423 13.5001V7.50041H11.5773C10.6681 7.49452 9.79785 7.13074 9.15494 6.48786C8.51203 5.84499 8.14823 4.97475 8.14233 4.0656ZM8.14233 11.6627C7.47996 11.6627 6.84471 11.3996 6.37633 10.9312C5.90796 10.4629 5.64483 9.82766 5.64483 9.16532H6.64233C6.64233 9.56312 6.80037 9.94463 7.08167 10.2259C7.36298 10.5072 7.74451 10.6652 8.14233 10.6652C8.54016 10.6652 8.92169 10.5072 9.20299 10.2259C9.4843 9.94463 9.64233 9.56312 9.64233 9.16532H10.6398C10.6398 9.82766 10.3767 10.4629 9.90833 10.9312C9.43996 11.3996 8.80471 11.6627 8.14233 11.6627ZM9.64233 4.0506V0.495798C9.64066 0.397732 9.66861 0.301442 9.72252 0.21951C9.77644 0.137577 9.85382 0.0738135 9.94455 0.036551C10.0353 -0.000711444 10.1351 -0.00973968 10.2311 0.0106461C10.327 0.0310318 10.4146 0.0798834 10.4823 0.150817L15.4998 5.16054C15.5675 5.23016 15.6132 5.31815 15.6313 5.41354C15.6493 5.50894 15.6389 5.60754 15.6013 5.69706C15.5637 5.78658 15.5007 5.86308 15.42 5.91704C15.3392 5.97099 15.2444 6.00001 15.1473 6.0005H11.5923C11.336 6.00149 11.082 5.95173 10.8449 5.85409C10.6079 5.75645 10.3925 5.61286 10.2113 5.4316C10.03 5.25033 9.88639 5.03499 9.78875 4.79797C9.6911 4.56095 9.64134 4.30694 9.64233 4.0506ZM4.26302 9.8272C4.26302 10.3985 3.79987 10.8616 3.22854 10.8616C2.65721 10.8616 2.19406 10.3985 2.19406 9.8272C2.19406 9.25591 2.65721 8.79278 3.22854 8.79278C3.79987 8.79278 4.26302 9.25591 4.26302 9.8272ZM13.0561 10.8616C13.6275 10.8616 14.0906 10.3985 14.0906 9.8272C14.0906 9.25591 13.6275 8.79278 13.0561 8.79278C12.4848 8.79278 12.0216 9.25591 12.0216 9.8272C12.0216 10.3985 12.4848 10.8616 13.0561 10.8616Z" fill="#B9BBBE"/>
</svg>